<?xml version="1.0"?>
<svg xmlns="http://www.w3.org/2000/svg" height="512px" viewBox="0 -89 512 512" width="512px"><path d="m256.542969 146.214844h255.457031v43.25h-255.457031zm0 0" fill="#9a7aa0"/><path d="m0 15.003906v167.988282h226.535156v-182.992188h-211.53125c-8.285156 0-15.003906 6.71875-15.003906 15.003906zm59.476562 132.648438c-8.113281 0-14.691406-6.578125-14.691406-14.691406 0-8.113282 6.578125-14.691407 14.691406-14.691407 8.113282 0 14.691407 6.578125 14.691407 14.691407 0 8.113281-6.578125 14.691406-14.691407 14.691406zm0-41.210938c-8.113281 0-14.691406-6.578125-14.691406-14.691406 0-8.117188 6.578125-14.691406 14.691406-14.691406 8.113282 0 14.691407 6.574218 14.691407 14.691406 0 8.113281-6.578125 14.691406-14.691407 14.691406zm0-41.214844c-8.113281 0-14.691406-6.578124-14.691406-14.691406 0-8.117187 6.578125-14.691406 14.691406-14.691406 8.113282 0 14.691407 6.574219 14.691407 14.691406 0 8.113282-6.578125 14.691406-14.691407 14.691406zm50.730469 82.425782c-8.117187 0-14.691406-6.578125-14.691406-14.691406 0-8.113282 6.574219-14.691407 14.691406-14.691407 8.113281 0 14.691407 6.578125 14.691407 14.691407 0 8.113281-6.578126 14.691406-14.691407 14.691406zm0-41.210938c-8.117187 0-14.691406-6.578125-14.691406-14.691406 0-8.117188 6.574219-14.691406 14.691406-14.691406 8.113281 0 14.691407 6.574218 14.691407 14.691406 0 8.113281-6.578126 14.691406-14.691407 14.691406zm0-41.214844c-8.117187 0-14.691406-6.578124-14.691406-14.691406 0-8.117187 6.574219-14.691406 14.691406-14.691406 8.113281 0 14.691407 6.574219 14.691407 14.691406 0 8.113282-6.578126 14.691406-14.691407 14.691406zm50.726563 82.425782c-8.113282 0-14.691406-6.578125-14.691406-14.691406 0-8.113282 6.578124-14.691407 14.691406-14.691407 8.117187 0 14.691406 6.578125 14.691406 14.691407 0 8.113281-6.574219 14.691406-14.691406 14.691406zm0-41.210938c-8.113282 0-14.691406-6.578125-14.691406-14.691406 0-8.117188 6.578124-14.691406 14.691406-14.691406 8.117187 0 14.691406 6.574218 14.691406 14.691406 0 8.113281-6.574219 14.691406-14.691406 14.691406zm0-41.214844c-8.113282 0-14.691406-6.578124-14.691406-14.691406 0-8.117187 6.578124-14.691406 14.691406-14.691406 8.117187 0 14.691406 6.574219 14.691406 14.691406 0 8.113282-6.574219 14.691406-14.691406 14.691406zm0 0" fill="#9a7aa0"/><path d="m0 292.726562v26.953126c0 8.285156 6.71875 15.003906 15.003906 15.003906h481.992188c8.285156 0 15.003906-6.71875 15.003906-15.003906v-26.953126zm0 0" fill="#9a7aa0"/><path d="m256.542969 42.953125h255.457031v-27.949219c0-8.285156-6.71875-15.003906-15.003906-15.003906h-240.453125zm0 0" fill="#9a7aa0"/><path d="m256.542969 72.957031h255.457031v43.25h-255.457031zm0 0" fill="#9a7aa0"/><path d="m0 219.472656h512v43.246094h-512zm0 0" fill="#9a7aa0"/></svg>
