<?xml version="1.0"?>
<svg xmlns="http://www.w3.org/2000/svg" height="512px" viewBox="-26 0 512 512.01029" width="512px"><path d="m288.386719 496.082031c-16.167969-17.140625-26.800781-39.386719-29.550781-62.894531-4.425782-37.769531 11.648437-75.804688 41.574218-99.15625 19.160156-14.949219 43.0625-23.167969 67.363282-23.167969 3.21875 0 6.429687.203125 9.636718.484375 1.105469.09375 2.203125.210938 3.308594.347656.613281.074219 1.234375.109376 1.847656.191407-12.507812-27.59375-23.933594-74.816407-23.933594-155.230469 0-51.519531-14.492187-91.238281-43.082031-118.035156-45.09375-42.285156-111.097656-38.5820315-111.746093-38.511719-.394532.019531-.804688.019531-1.199219 0-.660157-.0546875-66.652344-3.773437-111.746094 38.511719-28.589844 26.808594-43.089844 66.515625-43.089844 118.035156 0 129.464844-29.195312 173.902344-47.76562475 189.0625 15.51562475 10.613281 49.29296875 27.621094 100.25390575 21.128906.53125-.066406 1.0625-.101562 1.582032-.101562 5.066406 0 9.628906 3.125 11.410156 8 1.964844 5.375-.019531 11.292968-4.816406 14.398437l-80.367188 46.109375c-14.921875 8.566406-24.183594 24.613282-24.183594 41.921875v11.410157c0 12.910156 10.503907 23.425781 23.421876 23.425781h279.878906c-.101563-.074219-.191406-.15625-.292969-.222657-6.757813-4.53125-12.957031-9.816406-18.503906-15.707031zm0 0" fill="#9a7aa0"/><path d="m397.433594 334.195312c-29.652344-10.128906-63.332032-4.359374-87.808594 15.875-20.890625 17.261719-33.28125 43.382813-33.28125 70.5 0 50.414063 41.015625 91.429688 91.429688 91.429688 50.414062 0 91.429687-41.015625 91.429687-91.429688 0-33.875-19.464844-65.589843-49.527344-81.152343-3.976562-2.058594-8.0625-3.792969-12.242187-5.222657zm25.199218 95.519532h-45.714843v45.714844c0 5.054687-4.097657 9.140624-9.144531 9.140624-5.046876 0-9.140626-4.085937-9.140626-9.140624v-45.714844h-45.71875c-5.046874 0-9.140624-4.085938-9.140624-9.144532 0-5.054687 4.09375-9.140624 9.140624-9.140624h45.71875v-45.71875c0-5.054688 4.09375-9.140626 9.140626-9.140626 5.046874 0 9.144531 4.085938 9.144531 9.140626v45.71875h45.714843c5.046876 0 9.140626 4.085937 9.140626 9.140624 0 5.058594-4.09375 9.144532-9.140626 9.144532zm0 0" fill="#9a7aa0"/></svg>
