<?xml version="1.0" encoding="iso-8859-1"?>
<!-- Generator: Adobe Illustrator 18.0.0, SVG Export Plug-In . SVG Version: 6.00 Build 0)  -->
<!DOCTYPE svg PUBLIC "-//W3C//DTD SVG 1.1//EN" "http://www.w3.org/Graphics/SVG/1.1/DTD/svg11.dtd">
<svg xmlns="http://www.w3.org/2000/svg" xmlns:xlink="http://www.w3.org/1999/xlink" version="1.1" id="Capa_1" x="0px" y="0px" viewBox="0 0 481.444 481.444" style="enable-background:new 0 0 481.444 481.444;" xml:space="preserve" width="512px" height="512px">
<path d="M240.722,0C107.992,0,0,107.993,0,240.723s107.992,240.722,240.722,240.722c132.731,0,240.723-107.992,240.723-240.722  S373.452,0,240.722,0z M353.768,415.167c0.254-2.805,0.262-5.631-0.306-8.45l-10.378-52.113  c-4.108-20.645-20.258-36.77-40.902-40.855l-14.038-2.764c-8.078-1.598-14.408-7.873-16.078-15.935l-2.677-12.897  c-0.866-4.125,0.646-8.401,3.905-11.095c12.661-10.493,24.282-25.949,30.99-44.177c9.33-1.677,17.826-10.645,20.574-22.982  c2.92-13.164-1.693-25.691-10.48-30.597c4.677-3.268,7.346-9.817,7.346-21.88c0-31.958-18.471-59.357-45.161-72.876  c0.134-0.921,0.386-1.811,0.386-2.756c0-14.699-16.66-26.62-37.188-26.62c-20.533,0-37.186,11.921-37.186,26.62  c0,0.945,0.252,1.835,0.386,2.756c-26.691,13.519-45.171,40.918-45.171,72.876c0,12.063,2.671,18.612,7.355,21.888  c-8.795,4.897-13.401,17.425-10.48,30.589c2.725,12.337,11.236,21.306,20.559,22.982c6.724,18.235,18.328,33.684,30.998,44.186  c3.242,2.685,4.747,6.961,3.889,11.077l-2.67,12.898c-1.652,8.063-7.991,14.345-16.076,15.942l-14.023,2.764  c-20.644,4.086-36.793,20.211-40.902,40.855l-10.377,52.113c-0.48,2.387-0.592,4.796-0.488,7.181  c-55.956-37.335-92.931-100.999-92.931-173.175c0-114.739,93.34-208.079,208.079-208.079s208.079,93.34,208.079,208.079  C448.801,313.772,410.882,378.035,353.768,415.167z" fill="#9a7aa0"/>
<g>
</g>
<g>
</g>
<g>
</g>
<g>
</g>
<g>
</g>
<g>
</g>
<g>
</g>
<g>
</g>
<g>
</g>
<g>
</g>
<g>
</g>
<g>
</g>
<g>
</g>
<g>
</g>
<g>
</g>
</svg>
