<?xml version="1.0" encoding="iso-8859-1"?>
<!-- Generator: Adobe Illustrator 19.0.0, SVG Export Plug-In . SVG Version: 6.00 Build 0)  -->
<svg xmlns="http://www.w3.org/2000/svg" xmlns:xlink="http://www.w3.org/1999/xlink" version="1.1" id="Capa_1" x="0px" y="0px" viewBox="0 0 512 512" style="enable-background:new 0 0 512 512;" xml:space="preserve" width="512px" height="512px">
<g>
	<g>
		<path d="M256,231.385c-41.109,0-75.391,29.795-82.388,68.923h164.775C331.391,261.18,297.109,231.385,256,231.385z" fill="#9a7aa0"/>
	</g>
</g>
<g>
	<g>
		<path d="M256,113.231c-24.431,0-44.308,19.876-44.308,44.308s19.876,44.308,44.308,44.308s44.308-19.876,44.308-44.308    S280.431,113.231,256,113.231z" fill="#9a7aa0"/>
	</g>
</g>
<g>
	<g>
		<path d="M467.692,34.462H44.308C19.876,34.462,0,54.338,0,78.769v275.692c0,24.431,19.876,44.308,44.308,44.308h145.231    l54.646,72.862c2.789,3.719,7.166,5.908,11.815,5.908s9.026-2.189,11.815-5.908l54.646-72.862h145.231    c24.431,0,44.308-19.876,44.308-44.308V78.769C512,54.338,492.124,34.462,467.692,34.462z M354.462,329.846H157.538    c-8.157,0-14.769-6.613-14.769-14.769c0-44.978,26.362-83.912,64.445-102.171c-15.35-13.541-25.06-33.337-25.06-55.368    c0-40.719,33.127-73.846,73.846-73.846s73.846,33.127,73.846,73.846c0,22.031-9.71,41.826-25.06,55.368    c38.083,18.259,64.445,57.192,64.445,102.171C369.231,323.233,362.618,329.846,354.462,329.846z" fill="#9a7aa0"/>
	</g>
</g>
<g>
</g>
<g>
</g>
<g>
</g>
<g>
</g>
<g>
</g>
<g>
</g>
<g>
</g>
<g>
</g>
<g>
</g>
<g>
</g>
<g>
</g>
<g>
</g>
<g>
</g>
<g>
</g>
<g>
</g>
</svg>
