<?xml version="1.0" encoding="iso-8859-1"?>
<!-- Generator: Adobe Illustrator 16.0.0, SVG Export Plug-In . SVG Version: 6.00 Build 0)  -->
<!DOCTYPE svg PUBLIC "-//W3C//DTD SVG 1.1//EN" "http://www.w3.org/Graphics/SVG/1.1/DTD/svg11.dtd">
<svg xmlns="http://www.w3.org/2000/svg" xmlns:xlink="http://www.w3.org/1999/xlink" version="1.1" id="Capa_1" x="0px" y="0px" width="512px" height="512px" viewBox="0 0 65.48 65.48" style="enable-background:new 0 0 65.48 65.48;" xml:space="preserve">
<g>
	<path d="M33.976,65.48h30.529c0-8.395-3.275-16.004-8.593-21.68V25.83C55.912,11.567,45.541,0,32.74,0   C19.949,0,9.574,11.565,9.574,25.83v17.967C4.258,49.48,0.975,57.086,0.975,65.48h30.096l-3.271-11.902l-2.461-8.956   c2.303,0.958,4.797,1.528,7.402,1.528c2.42,0,4.736-0.499,6.908-1.327l-2.401,8.755L33.976,65.48z M17.983,37.366   c-1.023-1.426-1.874-3.011-2.46-4.734l-0.154-0.465l-0.483,0.075l-0.225,0.079c-1.518,0-2.76-1.748-2.76-3.9   c0-1.182,0.388-2.254,1.039-2.964c0.25,0.829,0.475,1.29,0.675,1.538c0.004,0.009,0.009,0.018,0.014,0.029l0.004-0.007   c0.243,0.288,0.45,0.283,0.624,0.278l0.794-0.165l-0.333-0.566c0.241-0.958,3.099-5.811,11.47-5.811   c1.533,0,3.178,0.163,4.901,0.488c3.401,0.642,6.199-0.914,7.93-4.237c0.097,0.542,0.58,3.244,1.442,4.456   c2.142,3.016,5.584,2.666,6.373,2.432c0.632-0.183,1.149-0.455,1.602-0.789c0.982,1.576,1.428,2.929,1.498,3.399l-0.688,0.812   h1.264c0.121,0,0.27,0,0.44-0.21l0.004,0.004c0.046-0.049,0.087-0.109,0.119-0.191c0.183-0.341,0.383-0.97,0.579-2.135   c1.154,0.494,1.957,1.939,1.957,3.642c0,2.152-1.231,3.896-2.719,3.896h-0.007c-0.062-0.023-0.152-0.056-0.271-0.074l-0.479-0.066   l-0.151,0.459c-0.584,1.726-1.43,3.309-2.459,4.731c-1.899,2.669-4.493,4.727-7.463,6.036c-2.259,0.999-4.723,1.583-7.301,1.583   c-2.768,0-5.403-0.647-7.794-1.788C22.183,41.881,19.779,39.887,17.983,37.366z M32.745,41.019c-1.603,0-3.016-0.427-4.099-1.068   c-0.628-0.369-1.17-0.798-1.504-1.307c0.934,0.632,2.222,1.088,3.7,1.307c0.607,0.092,1.233,0.148,1.899,0.148   c0.664,0,1.299-0.057,1.899-0.148c1.478-0.219,2.769-0.675,3.695-1.307c-0.333,0.509-0.872,0.929-1.501,1.307   C35.763,40.592,34.35,41.019,32.745,41.019z M26.882,27.187c0.128,0.285,0.21,0.593,0.21,0.925c0,1.238-1.005,2.24-2.245,2.24   c-1.231,0-2.24-1.002-2.24-2.24c0-0.334,0.081-0.638,0.212-0.925c0.353-0.773,1.124-1.315,2.028-1.315   C25.756,25.872,26.529,26.414,26.882,27.187z M38.403,28.116c0-0.336,0.082-0.64,0.21-0.925c0.351-0.773,1.122-1.312,2.03-1.312   c0.907,0,1.683,0.539,2.034,1.312c0.128,0.285,0.21,0.593,0.21,0.925c0,1.235-1.004,2.24-2.244,2.24   C39.407,30.352,38.403,29.352,38.403,28.116z" fill="#9a7aa0"/>
</g>
<g>
</g>
<g>
</g>
<g>
</g>
<g>
</g>
<g>
</g>
<g>
</g>
<g>
</g>
<g>
</g>
<g>
</g>
<g>
</g>
<g>
</g>
<g>
</g>
<g>
</g>
<g>
</g>
<g>
</g>
</svg>
