<?xml version="1.0" encoding="iso-8859-1"?>
<!-- Generator: Adobe Illustrator 16.0.0, SVG Export Plug-In . SVG Version: 6.00 Build 0)  -->
<!DOCTYPE svg PUBLIC "-//W3C//DTD SVG 1.1//EN" "http://www.w3.org/Graphics/SVG/1.1/DTD/svg11.dtd">
<svg xmlns="http://www.w3.org/2000/svg" xmlns:xlink="http://www.w3.org/1999/xlink" version="1.1" id="Capa_1" x="0px" y="0px" width="512px" height="512px" viewBox="0 0 593.237 593.237" style="enable-background:new 0 0 593.237 593.237;" xml:space="preserve">
<g>
	<g>
		<path d="M402.411,283.512c-1.081-0.917-1.953-1.731-2.89-2.567c-6.142-7.005,4.916-7.664,4.916-7.664h13.656l120.833,0.027h4.598    c0,0,10.53,0.445,4.062,7.283c-0.364,0.3-0.709,0.604-1.091,0.949c-0.608,0.577-1.317,1.172-2.145,1.844    c-0.427,0.364-0.908,0.754-1.362,1.113c-0.781,0.609-1.454,1.145-2.018,1.622c-14.628,11.553-39.214,26.658-67.244,26.131    C442.644,313.323,416.349,295.406,402.411,283.512L402.411,283.512z M393.116,256.077c-11.766,0-9.631-8.041-7.723-12.17    l1.227-2.344c0-0.027,0.055-0.113,0.055-0.113l81.228-154.688c0.1-0.168,5.633-10.662,11.239,0.027l81.001,154.215    c1.681,3.321,6.814,15.101-5.216,15.101l-161.783-0.027C393.126,256.077,393.126,256.077,393.116,256.077L393.116,256.077z     M205.766,241.98l0.009,0.027l1.258,2.403c1.954,4.016,4.884,11.693-1.258,11.693l-174.299-0.027l0,0    c-5.779,0-4.634-5.306-2.79-9.576l2.762-5.247l0.027-0.027l0,0L114.57,83.005c0,0,4.243-6.56,7.682,0h0.009L205.766,241.98    L205.766,241.98z M192.591,283.431c-15.469,11.053-42.767,27.33-70.875,28.411c-0.55,0.063-1.063,0.2-1.59,0.255    c-0.086-0.027-0.114-0.082-0.164-0.154c-1.236,0.1-2.435,0.281-3.662,0.281c-0.636,0-1.231-0.137-1.872-0.137    c-29.075-0.309-56.188-18.589-70.279-29.951h0.009c0,0-11.221-8.873,0-8.873h14.306l123.037,0.027h10.849    C192.341,273.3,203.471,276.035,192.591,283.431L192.591,283.431z M591.017,247.478l-0.246-0.554l0.146-0.114l-1.845-3.516l0,0    L490.636,55.893c-2.672-4.893-12.03-19.258-30.029-19.258H130.897c-20.066,0-30.115,19.771-30.337,20.234L3.899,240.922    c0,0-0.027,0.082-0.045,0.082l-0.682,1.313c-1.617,3.207-5.22,11.916-1.645,20.516c24.559,39.86,68.344,66.627,118.598,66.627    c49.141,0,91.995-25.659,116.84-64.024c3.798-8.736-1.49-19.648-1.49-19.648L144.018,71.625l0,0l-0.895-1.694    c-1.227-2.826-2.326-8.232,7.482-8.232h119.906c3.407,0.114,12.893,1.794,12.893,17.667v412.572    c-0.227,4.099-1.772,12.366-10.276,17.618l-60.03,37.115c0,0-15.741,9.932,0,9.932H383.44c11.603,0,0-8.06,0-8.06l-61.839-37.852    c-0.019,0-0.019-0.027-0.055-0.027c-10.158-6.224-12.057-14.065-12.339-18.026V77.599c0-14.347,10.285-15.828,13.901-15.909    h117.235c3.08,0.054,12.438,1.072,6.533,12.338l-91.804,174.763c0,0-2.854,6.896,0.363,14.433    c24.595,39.632,68.198,66.236,118.298,66.236c50.19,0,93.967-26.649,118.517-66.432    C594.696,256.609,591.934,249.49,591.017,247.478L591.017,247.478z" fill="#9a7aa0"/>
	</g>
</g>
<g>
</g>
<g>
</g>
<g>
</g>
<g>
</g>
<g>
</g>
<g>
</g>
<g>
</g>
<g>
</g>
<g>
</g>
<g>
</g>
<g>
</g>
<g>
</g>
<g>
</g>
<g>
</g>
<g>
</g>
</svg>
