<?xml version="1.0"?>
<svg xmlns="http://www.w3.org/2000/svg" height="512px" viewBox="-56 0 448 448" width="512px"><path d="m196.488281 181.296875c7.492188 1.820313 14.789063 4.351563 21.800781 7.558594 7.46875-10.964844 12.039063-23.644531 13.285157-36.855469h-31.765625c-.335938 9.835938-1.445313 19.632812-3.320313 29.296875zm0 0" fill="#9a7aa0"/><path d="m199.808594 136h31.765625c-1.246094-13.210938-5.816407-25.890625-13.285157-36.855469-7.011718 3.207031-14.308593 5.742188-21.800781 7.558594 1.875 9.664063 2.984375 19.460937 3.320313 29.296875zm0 0" fill="#9a7aa0"/><path d="m207.457031 86.398438c-6.949219-6.671876-15.046875-12.027344-23.90625-15.8125 3.746094 6.527343 6.75 13.453124 8.960938 20.644531 5.085937-1.265625 10.078125-2.878907 14.945312-4.832031zm0 0" fill="#9a7aa0"/><path d="m176.414062 94.144531c-6.316406-18.59375-15.613281-30.144531-24.414062-30.144531s-18.097656 11.550781-24.414062 30.144531c16.203124 2.195313 32.625 2.195313 48.828124 0zm0 0" fill="#9a7aa0"/><path d="m96.542969 201.601562c6.945312 6.671876 15.046875 12.03125 23.90625 15.8125-3.746094-6.523437-6.75-13.445312-8.960938-20.636718-5.085937 1.257812-10.082031 2.871094-14.945312 4.824218zm0 0" fill="#9a7aa0"/><path d="m183.550781 217.433594c8.859375-3.792969 16.960938-9.15625 23.90625-15.832032-4.863281-1.945312-9.859375-3.550781-14.945312-4.800781-2.210938 7.1875-5.214844 14.109375-8.960938 20.632813zm0 0" fill="#9a7aa0"/><path d="m183.816406 136c-.363281-8.839844-1.433594-17.636719-3.199218-26.304688-9.46875 1.480469-19.035157 2.25-28.617188 2.304688-9.574219-.054688-19.132812-.824219-28.59375-2.304688-1.765625 8.667969-2.835938 17.464844-3.199219 26.304688zm0 0" fill="#9a7aa0"/><path d="m120 352h16v16h-16zm0 0" fill="#9a7aa0"/><path d="m127.585938 193.863281c6.316406 18.585938 15.652343 30.136719 24.414062 30.136719s18.097656-11.550781 24.414062-30.144531c-16.203124-2.195313-32.628906-2.195313-48.828124.007812zm0 0" fill="#9a7aa0"/><path d="m120.183594 152c.363281 8.84375 1.433594 17.640625 3.199218 26.3125 18.960938-2.785156 38.226563-2.785156 57.183594 0 1.769532-8.671875 2.839844-17.46875 3.203125-26.3125zm0 0" fill="#9a7aa0"/><path d="m16 424h272c8.835938 0 16-7.164062 16-16v-368c0-8.835938-7.164062-16-16-16h-272c-8.835938 0-16 7.164062-16 16v368c0 8.835938 7.164062 16 16 16zm136-24h-16v-16h-16v16h-16v-56c0-4.417969 3.582031-8 8-8h32c4.417969 0 8 3.582031 8 8zm48-48h-24v8h16c4.417969 0 8 3.582031 8 8v24c0 4.417969-3.582031 8-8 8h-32v-16h24v-8h-16c-4.417969 0-8-3.582031-8-8v-24c0-4.417969 3.582031-8 8-8h32zm-40-32v-16h80v16zm88 32h-24v8h16c4.417969 0 8 3.582031 8 8v24c0 4.417969-3.582031 8-8 8h-32v-16h24v-8h-16c-4.417969 0-8-3.582031-8-8v-24c0-4.417969 3.582031-8 8-8h32zm-170.960938-268.046875c29.277344-36.652344 80.71875-46.84375 121.757813-24.128906 41.042969 22.71875 59.71875 71.71875 44.207031 115.988281-15.511718 44.269531-60.6875 70.898438-106.929687 63.03125-46.246094-7.867188-80.074219-47.9375-80.074219-94.84375-.03125-21.828125 7.390625-43.011719 21.039062-60.046875zm-21.039062 180.046875h184v16h-184zm0 40h88v16h-88zm-8 40c0-4.417969 3.582031-8 8-8h32c4.417969 0 8 3.582031 8 8v32c0 4.417969-3.582031 8-8 8h-24v16h-16zm0 0" fill="#9a7aa0"/><path d="m120.449219 70.566406c-8.859375 3.789063-16.960938 9.152344-23.90625 15.832032 4.867187 1.941406 9.859375 3.546874 14.945312 4.800781 2.210938-7.1875 5.214844-14.109375 8.960938-20.632813zm0 0" fill="#9a7aa0"/><path d="m64 352h16v16h-16zm0 0" fill="#9a7aa0"/><path d="m40 448h288c4.417969 0 8-3.582031 8-8v-432c0-4.417969-3.582031-8-8-8h-288c-4.417969 0-8 3.582031-8 8h256c17.671875 0 32 14.328125 32 32v368c0 17.671875-14.328125 32-32 32h-256c0 4.417969 3.582031 8 8 8zm0 0" fill="#9a7aa0"/><path d="m107.511719 106.703125c-7.492188-1.816406-14.792969-4.347656-21.800781-7.558594-7.46875 10.964844-12.039063 23.644531-13.285157 36.855469h31.765625c.335938-9.835938 1.445313-19.632812 3.320313-29.296875zm0 0" fill="#9a7aa0"/><path d="m107.511719 181.296875c-1.875-9.664063-2.984375-19.460937-3.320313-29.296875h-31.765625c1.246094 13.210938 5.816407 25.890625 13.285157 36.855469 7.011718-3.207031 14.308593-5.738281 21.800781-7.558594zm0 0" fill="#9a7aa0"/></svg>
