<?xml version="1.0" encoding="iso-8859-1"?>
<!-- Generator: Adobe Illustrator 19.0.0, SVG Export Plug-In . SVG Version: 6.00 Build 0)  -->
<svg xmlns="http://www.w3.org/2000/svg" xmlns:xlink="http://www.w3.org/1999/xlink" version="1.1" id="Layer_1" x="0px" y="0px" viewBox="0 0 512 512" style="enable-background:new 0 0 512 512;" xml:space="preserve" width="512px" height="512px">
<g>
	<g>
		<path d="M413.342,120.063l27.982,6.995l-31.704-19.021c7.64,0.581,24.425,0.44,35.109-10.246    c14.189-14.187,9.786-39.138,9.786-39.138s-24.463-4.893-39.14,9.783c-12.056,12.057-10.908,30.705-10.114,36.984l-88.707-53.226    C313.796,22.997,283.988,0,247.593,0c-36.191,0-65.874,22.74-68.914,51.704c-0.165,1.053-0.104,9.295,0.198,11.441    c3.494,31.607,26.468,59.616,48.756,86.772c7.549,9.197,15.177,18.497,22.008,27.871c-25.121-4.865-55.331-4.431-86.754,2.449    C88.231,196.583,34.998,243.12,43.99,284.179c7.763,35.462,59.406,55.238,121.438,49.441v59.155c-4.239,3.8-6.919,9.3-6.919,15.44    s2.682,11.64,6.919,15.44V512h83.027l-55.351-27.676v-60.668c4.239-3.8,6.919-9.3,6.919-15.44s-2.682-11.64-6.919-15.44v-63.351    c0.779-0.162,1.56-0.324,2.34-0.494c66.88-14.643,116.556-53.516,119.719-90.973c0.138-0.97,0.235-1.955,0.235-2.965    c0-43.581-29.58-79.617-55.677-111.414c-2.88-3.508-5.734-6.988-8.519-10.436c20.315-0.854,38.303-8.885,50.281-21.045    l100.334,25.084c-14.703,24.748-57.359,100.103-57.359,141.336c0,34.391,27.878,62.27,62.27,62.27    c34.391,0,62.27-27.879,62.27-62.27C468.999,218.776,429.371,147.336,413.342,120.063z M261.431,68.245    c-5.733,0-10.378-4.645-10.378-10.378s4.645-10.378,10.378-10.378c5.732,0,10.378,4.645,10.378,10.378    S267.161,68.245,261.431,68.245z" fill="#9a7aa0"/>
	</g>
</g>
<g>
</g>
<g>
</g>
<g>
</g>
<g>
</g>
<g>
</g>
<g>
</g>
<g>
</g>
<g>
</g>
<g>
</g>
<g>
</g>
<g>
</g>
<g>
</g>
<g>
</g>
<g>
</g>
<g>
</g>
</svg>
