<?xml version="1.0" encoding="iso-8859-1"?>
<!-- Generator: Adobe Illustrator 18.1.1, SVG Export Plug-In . SVG Version: 6.00 Build 0)  -->
<svg xmlns="http://www.w3.org/2000/svg" xmlns:xlink="http://www.w3.org/1999/xlink" version="1.1" id="Capa_1" x="0px" y="0px" viewBox="0 0 94.245 94.245" style="enable-background:new 0 0 94.245 94.245;" xml:space="preserve" width="512px" height="512px">
<g>
	<g>
		<path d="M93.78,94.245c-5.465-6.861-6.284-36.315-7.347-52.885C84.511,11.449,70.579,0,51.024,0    C31.472,0,17.547,11.445,15.625,41.361c-0.39,6.106-0.633,13.557-1.095,21.022c-7.827,0.49-14.065,6.939-14.065,14.884    c0,6.27,3.883,11.635,9.366,13.861c-0.483,1.149-0.984,2.222-1.568,3.117H93.78z M14.298,65.987    c0.383-0.043,0.762-0.118,1.16-0.118c6.288,0,11.402,5.118,11.402,11.402c0,6.284-5.114,11.402-11.402,11.402    c-1.568,0-3.063-0.322-4.427-0.895c-4.094-1.732-6.972-5.787-6.972-10.508C4.058,71.377,8.568,66.577,14.298,65.987z     M26.662,43.358c0.447-0.132,0.913-0.029,1.371,0.229v-3.013l2.949-0.218c11.055,0,20.618-4.688,25.864-11.595    c3.801,5.01,9.892,8.768,17.182,10.486v4.345c0.462-0.261,0.923-0.369,1.378-0.233c1.503,0.451,2.162,3.207,1.467,6.156    c-0.673,2.867-4.08,4.846-5.558,4.549C68.431,63.403,58.425,74.2,51.031,74.2c-7.609,0-17.35-10.55-20.249-20.145    c-1.474,0.344-4.907-1.65-5.59-4.545C24.497,46.564,25.152,43.809,26.662,43.358z" fill="#9a7aa0"/>
		<path d="M12.895,79.057h0.777v7.122h1.789h1.789v-7.122h7.129v-1.789v-1.789H17.25v-7.125h-1.789h-1.349    h-0.44v4.695c-0.082,0.82-0.183,1.628-0.279,2.434H6.553v1.789v1.789L12.895,79.057L12.895,79.057z" fill="#9a7aa0"/>
	</g>
</g>
<g>
</g>
<g>
</g>
<g>
</g>
<g>
</g>
<g>
</g>
<g>
</g>
<g>
</g>
<g>
</g>
<g>
</g>
<g>
</g>
<g>
</g>
<g>
</g>
<g>
</g>
<g>
</g>
<g>
</g>
</svg>
